<?xml version="1.0" encoding="UTF-8"?>
<svg xmlns="http://www.w3.org/2000/svg" viewBox="0 0 720 420" fill="none">
  <rect width="720" height="420" fill="#fafafa"/>
  <text x="360" y="28" text-anchor="middle" font-family="system-ui, sans-serif" font-size="16" fill="#111" font-weight="700">MIXD - initial system diagram</text>
  <rect x="40" y="60" width="280" height="300" rx="12" fill="#e8eef7" stroke="#3b82f6" stroke-width="2"/>
  <text x="180" y="88" text-anchor="middle" font-family="system-ui, sans-serif" font-size="13" fill="#1e3a5f" font-weight="600">Flutter client</text>
  <rect x="60" y="108" width="240" height="44" rx="6" fill="#fff" stroke="#94a3b8"/>
  <text x="180" y="136" text-anchor="middle" font-family="system-ui, sans-serif" font-size="11" fill="#334155">Feed / Explore / Profile</text>
  <rect x="60" y="164" width="240" height="44" rx="6" fill="#fff" stroke="#94a3b8"/>
  <text x="180" y="192" text-anchor="middle" font-family="system-ui, sans-serif" font-size="11" fill="#334155">Create / Catalog search</text>
  <rect x="60" y="220" width="240" height="44" rx="6" fill="#fff" stroke="#94a3b8"/>
  <text x="180" y="248" text-anchor="middle" font-family="system-ui, sans-serif" font-size="11" fill="#334155">Editor / Trim / Order / Save</text>
  <rect x="60" y="276" width="240" height="44" rx="6" fill="#fff" stroke="#94a3b8"/>
  <text x="180" y="304" text-anchor="middle" font-family="system-ui, sans-serif" font-size="11" fill="#334155">Player (concat clips)</text>
  <rect x="400" y="60" width="280" height="300" rx="12" fill="#f0fdf4" stroke="#16a34a" stroke-width="2"/>
  <text x="540" y="88" text-anchor="middle" font-family="system-ui, sans-serif" font-size="13" fill="#14532d" font-weight="600">Supabase (backend)</text>
  <rect x="420" y="108" width="240" height="50" rx="6" fill="#fff" stroke="#94a3b8"/>
  <text x="540" y="132" text-anchor="middle" font-family="system-ui, sans-serif" font-size="11" fill="#334155">Auth (e.g. Google)</text>
  <text x="540" y="150" text-anchor="middle" font-family="system-ui, sans-serif" font-size="9" fill="#64748b">JWT / session</text>
  <rect x="420" y="172" width="240" height="56" rx="6" fill="#fff" stroke="#94a3b8"/>
  <text x="540" y="196" text-anchor="middle" font-family="system-ui, sans-serif" font-size="11" fill="#334155">PostgreSQL</text>
  <text x="540" y="214" text-anchor="middle" font-family="system-ui, sans-serif" font-size="9" fill="#64748b">mixtapes, songs, users, ...</text>
  <rect x="420" y="242" width="240" height="50" rx="6" fill="#fff" stroke="#94a3b8"/>
  <text x="540" y="272" text-anchor="middle" font-family="system-ui, sans-serif" font-size="11" fill="#334155">Storage (MP3 objects)</text>
  <defs>
    <marker id="arrow" markerWidth="8" markerHeight="8" refX="7" refY="4" orient="auto">
      <path d="M0,0 L8,4 L0,8 Z" fill="#64748b"/>
    </marker>
  </defs>
  <line x1="320" y1="130" x2="400" y2="130" stroke="#64748b" stroke-width="2" marker-end="url(#arrow)"/>
  <line x1="320" y1="200" x2="400" y2="200" stroke="#64748b" stroke-width="2" marker-end="url(#arrow)"/>
  <line x1="320" y1="242" x2="360" y2="242" stroke="#64748b" stroke-width="2"/>
  <line x1="360" y1="242" x2="360" y2="267" stroke="#64748b" stroke-width="2"/>
  <line x1="360" y1="267" x2="400" y2="267" stroke="#64748b" stroke-width="2" marker-end="url(#arrow)"/>
  <line x1="320" y1="298" x2="360" y2="298" stroke="#64748b" stroke-width="2"/>
  <line x1="360" y1="298" x2="360" y2="267" stroke="#64748b" stroke-width="2"/>
  <text x="330" y="122" font-family="system-ui, sans-serif" font-size="9" fill="#64748b">API</text>
  <text x="330" y="288" font-family="system-ui, sans-serif" font-size="9" fill="#64748b">signed URLs</text>
</svg>
