<?xml version="1.0" encoding="UTF-8"?>
<svg xmlns="http://www.w3.org/2000/svg" viewBox="0 0 360 640" fill="none">
  <rect width="360" height="640" fill="#1a1a2e"/>
  <rect x="0" y="0" width="360" height="56" fill="#16213e"/>
  <text x="24" y="36" font-family="system-ui, sans-serif" font-size="16" fill="#fff" font-weight="600">Mixes</text>
  <rect x="24" y="72" width="150" height="36" rx="18" fill="#3b82f6"/>
  <text x="99" y="95" text-anchor="middle" font-family="system-ui, sans-serif" font-size="12" fill="#fff" font-weight="600">My mixes</text>
  <rect x="186" y="72" width="150" height="36" rx="18" fill="#16213e" stroke="#2a3f5f"/>
  <text x="261" y="95" text-anchor="middle" font-family="system-ui, sans-serif" font-size="12" fill="#8a9bb8">Shared</text>
  <rect x="16" y="128" width="328" height="72" rx="8" fill="#16213e" stroke="#2a3f5f"/>
  <rect x="28" y="140" width="48" height="48" rx="4" fill="#2d4a7c"/>
  <text x="88" y="162" font-family="system-ui, sans-serif" font-size="14" fill="#fff" font-weight="600">Rainy Tuesday</text>
  <text x="88" y="182" font-family="system-ui, sans-serif" font-size="11" fill="#8a9bb8">5 tracks - Private</text>
  <text x="300" y="178" font-family="system-ui, sans-serif" font-size="18" fill="#6b7280">...</text>
  <rect x="16" y="212" width="328" height="72" rx="8" fill="#16213e" stroke="#2a3f5f"/>
  <rect x="28" y="224" width="48" height="48" rx="4" fill="#2d4a7c"/>
  <text x="88" y="246" font-family="system-ui, sans-serif" font-size="14" fill="#fff" font-weight="600">Study v2</text>
  <text x="88" y="266" font-family="system-ui, sans-serif" font-size="11" fill="#8a9bb8">8 tracks - Public</text>
  <text x="300" y="262" font-family="system-ui, sans-serif" font-size="18" fill="#6b7280">...</text>
  <rect x="16" y="296" width="328" height="72" rx="8" fill="#16213e" stroke="#2a3f5f"/>
  <rect x="28" y="308" width="48" height="48" rx="4" fill="#2d4a7c"/>
  <text x="88" y="330" font-family="system-ui, sans-serif" font-size="14" fill="#fff" font-weight="600">Road trip</text>
  <text x="88" y="350" font-family="system-ui, sans-serif" font-size="11" fill="#8a9bb8">12 tracks - Public</text>
  <text x="300" y="346" font-family="system-ui, sans-serif" font-size="18" fill="#6b7280">...</text>
  <text x="180" y="420" text-anchor="middle" font-family="system-ui, sans-serif" font-size="10" fill="#6b7280">Row ... - Play / Delete (owner)</text>
</svg>
